<mxfile host="app.diagrams.net" modified="2021-12-31T08:04:52.075Z" agent="5.0 (Windows NT 10.0; Win64; x64) AppleWebKit/537.36 (KHTML, like Gecko) Chrome/96.0.4664.110 Safari/537.36" etag="YwQ0OeAFnl5KzdUrHUah" version="15.8.0" type="github">
  <diagram name="Page-1" id="6133507b-19e7-1e82-6fc7-422aa6c4b21f">
    <mxGraphModel dx="979" dy="541" grid="1" gridSize="10" guides="1" tooltips="1" connect="1" arrows="1" fold="1" page="1" pageScale="1" pageWidth="1100" pageHeight="850" background="none" math="0" shadow="0">
      <root>
        <mxCell id="0" />
        <mxCell id="1" parent="0" />
        <mxCell id="AFFpdQYeHImqbVrOeC9r-11" value="" style="rounded=0;whiteSpace=wrap;html=1;" vertex="1" parent="1">
          <mxGeometry x="80" y="200" width="310" height="300" as="geometry" />
        </mxCell>
        <mxCell id="AFFpdQYeHImqbVrOeC9r-1" value="front" style="rounded=0;whiteSpace=wrap;html=1;" vertex="1" parent="1">
          <mxGeometry x="90" y="20" width="290" height="20" as="geometry" />
        </mxCell>
        <mxCell id="AFFpdQYeHImqbVrOeC9r-2" value="back" style="rounded=0;whiteSpace=wrap;html=1;" vertex="1" parent="1">
          <mxGeometry x="740" y="20" width="250" height="20" as="geometry" />
        </mxCell>
        <mxCell id="AFFpdQYeHImqbVrOeC9r-4" value="index" style="rounded=0;whiteSpace=wrap;html=1;" vertex="1" parent="1">
          <mxGeometry x="170" y="70" width="130" height="20" as="geometry" />
        </mxCell>
        <mxCell id="AFFpdQYeHImqbVrOeC9r-5" value="app" style="rounded=0;whiteSpace=wrap;html=1;" vertex="1" parent="1">
          <mxGeometry x="170" y="110" width="130" height="20" as="geometry" />
        </mxCell>
        <mxCell id="AFFpdQYeHImqbVrOeC9r-6" value="login" style="rounded=0;whiteSpace=wrap;html=1;" vertex="1" parent="1">
          <mxGeometry x="90" y="150" width="130" height="20" as="geometry" />
        </mxCell>
        <mxCell id="AFFpdQYeHImqbVrOeC9r-7" value="register" style="rounded=0;whiteSpace=wrap;html=1;" vertex="1" parent="1">
          <mxGeometry x="250" y="150" width="130" height="20" as="geometry" />
        </mxCell>
        <mxCell id="AFFpdQYeHImqbVrOeC9r-10" value="chat" style="rounded=0;whiteSpace=wrap;html=1;" vertex="1" parent="1">
          <mxGeometry x="90" y="210" width="290" height="20" as="geometry" />
        </mxCell>
        <mxCell id="AFFpdQYeHImqbVrOeC9r-12" value="" style="rounded=0;whiteSpace=wrap;html=1;" vertex="1" parent="1">
          <mxGeometry x="90" y="240" width="220" height="220" as="geometry" />
        </mxCell>
        <mxCell id="AFFpdQYeHImqbVrOeC9r-13" value="" style="rounded=0;whiteSpace=wrap;html=1;strokeWidth=1;fontSize=8;" vertex="1" parent="1">
          <mxGeometry x="320" y="240" width="60" height="250" as="geometry" />
        </mxCell>
        <mxCell id="AFFpdQYeHImqbVrOeC9r-14" value="write your text here" style="rounded=0;whiteSpace=wrap;html=1;" vertex="1" parent="1">
          <mxGeometry x="90" y="470" width="180" height="20" as="geometry" />
        </mxCell>
        <mxCell id="AFFpdQYeHImqbVrOeC9r-15" value="âœ”" style="rounded=0;whiteSpace=wrap;html=1;" vertex="1" parent="1">
          <mxGeometry x="280" y="470" width="30" height="20" as="geometry" />
        </mxCell>
        <mxCell id="AFFpdQYeHImqbVrOeC9r-16" value="gavri" style="rounded=0;whiteSpace=wrap;html=1;" vertex="1" parent="1">
          <mxGeometry x="90" y="240" width="220" height="30" as="geometry" />
        </mxCell>
        <mxCell id="AFFpdQYeHImqbVrOeC9r-45" value="gavri" style="rounded=0;whiteSpace=wrap;html=1;fillColor=#d5e8d4;strokeColor=#82b366;strokeWidth=1;fontSize=8;" vertex="1" parent="1">
          <mxGeometry x="320" y="240" width="60" height="10" as="geometry" />
        </mxCell>
        <mxCell id="AFFpdQYeHImqbVrOeC9r-46" value="&lt;span style=&quot;font-size: 8px;&quot;&gt;yaron&lt;/span&gt;" style="rounded=0;whiteSpace=wrap;html=1;fillColor=#f8cecc;strokeColor=#b85450;strokeWidth=1;fontSize=8;" vertex="1" parent="1">
          <mxGeometry x="320" y="250" width="60" height="10" as="geometry" />
        </mxCell>
        <mxCell id="AFFpdQYeHImqbVrOeC9r-47" value="&lt;span style=&quot;font-size: 8px;&quot;&gt;moshe&lt;/span&gt;" style="rounded=0;whiteSpace=wrap;html=1;fillColor=#d5e8d4;strokeColor=#82b366;strokeWidth=1;fontSize=8;" vertex="1" parent="1">
          <mxGeometry x="320" y="260" width="60" height="10" as="geometry" />
        </mxCell>
        <mxCell id="AFFpdQYeHImqbVrOeC9r-48" value="&lt;span style=&quot;font-size: 8px;&quot;&gt;david&lt;/span&gt;" style="rounded=0;whiteSpace=wrap;html=1;fillColor=#d5e8d4;strokeColor=#82b366;strokeWidth=1;fontSize=8;" vertex="1" parent="1">
          <mxGeometry x="320" y="270" width="60" height="10" as="geometry" />
        </mxCell>
        <mxCell id="AFFpdQYeHImqbVrOeC9r-49" value="gavri" style="rounded=0;whiteSpace=wrap;html=1;fillColor=#d5e8d4;strokeColor=#82b366;strokeWidth=1;fontSize=8;" vertex="1" parent="1">
          <mxGeometry x="320" y="280" width="60" height="10" as="geometry" />
        </mxCell>
        <mxCell id="AFFpdQYeHImqbVrOeC9r-50" value="&lt;span style=&quot;font-size: 8px;&quot;&gt;yaron&lt;/span&gt;" style="rounded=0;whiteSpace=wrap;html=1;fillColor=#f8cecc;strokeColor=#b85450;strokeWidth=1;fontSize=8;" vertex="1" parent="1">
          <mxGeometry x="320" y="290" width="60" height="10" as="geometry" />
        </mxCell>
        <mxCell id="AFFpdQYeHImqbVrOeC9r-51" value="&lt;span style=&quot;font-size: 8px;&quot;&gt;moshe&lt;/span&gt;" style="rounded=0;whiteSpace=wrap;html=1;fillColor=#f8cecc;strokeColor=#b85450;strokeWidth=1;fontSize=8;" vertex="1" parent="1">
          <mxGeometry x="320" y="300" width="60" height="10" as="geometry" />
        </mxCell>
        <mxCell id="AFFpdQYeHImqbVrOeC9r-52" value="&lt;span style=&quot;font-size: 8px;&quot;&gt;david&lt;/span&gt;" style="rounded=0;whiteSpace=wrap;html=1;fillColor=#f8cecc;strokeColor=#b85450;strokeWidth=1;fontSize=8;" vertex="1" parent="1">
          <mxGeometry x="320" y="310" width="60" height="10" as="geometry" />
        </mxCell>
        <mxCell id="AFFpdQYeHImqbVrOeC9r-53" value="gavri" style="rounded=0;whiteSpace=wrap;html=1;fillColor=#d5e8d4;strokeColor=#82b366;strokeWidth=1;fontSize=8;" vertex="1" parent="1">
          <mxGeometry x="320" y="320" width="60" height="10" as="geometry" />
        </mxCell>
        <mxCell id="AFFpdQYeHImqbVrOeC9r-54" value="&lt;span style=&quot;font-size: 8px;&quot;&gt;yaron&lt;/span&gt;" style="rounded=0;whiteSpace=wrap;html=1;fillColor=#d5e8d4;strokeColor=#82b366;strokeWidth=1;fontSize=8;" vertex="1" parent="1">
          <mxGeometry x="320" y="330" width="60" height="10" as="geometry" />
        </mxCell>
        <mxCell id="AFFpdQYeHImqbVrOeC9r-55" value="&lt;span style=&quot;font-size: 8px;&quot;&gt;moshe&lt;/span&gt;" style="rounded=0;whiteSpace=wrap;html=1;fillColor=#d5e8d4;strokeColor=#82b366;strokeWidth=1;fontSize=8;" vertex="1" parent="1">
          <mxGeometry x="320" y="340" width="60" height="10" as="geometry" />
        </mxCell>
        <mxCell id="AFFpdQYeHImqbVrOeC9r-56" value="&lt;span style=&quot;font-size: 8px;&quot;&gt;david&lt;/span&gt;" style="rounded=0;whiteSpace=wrap;html=1;fillColor=#f8cecc;strokeColor=#b85450;strokeWidth=1;fontSize=8;" vertex="1" parent="1">
          <mxGeometry x="320" y="350" width="60" height="10" as="geometry" />
        </mxCell>
        <mxCell id="AFFpdQYeHImqbVrOeC9r-57" value="gavri" style="rounded=0;whiteSpace=wrap;html=1;fillColor=#d5e8d4;strokeColor=#82b366;strokeWidth=1;fontSize=8;" vertex="1" parent="1">
          <mxGeometry x="320" y="360" width="60" height="10" as="geometry" />
        </mxCell>
        <mxCell id="AFFpdQYeHImqbVrOeC9r-58" value="&lt;span style=&quot;font-size: 8px;&quot;&gt;yaron&lt;/span&gt;" style="rounded=0;whiteSpace=wrap;html=1;fillColor=#f8cecc;strokeColor=#b85450;strokeWidth=1;fontSize=8;" vertex="1" parent="1">
          <mxGeometry x="320" y="370" width="60" height="10" as="geometry" />
        </mxCell>
        <mxCell id="AFFpdQYeHImqbVrOeC9r-59" value="&lt;span style=&quot;font-size: 8px;&quot;&gt;moshe&lt;/span&gt;" style="rounded=0;whiteSpace=wrap;html=1;fillColor=#d5e8d4;strokeColor=#82b366;strokeWidth=1;fontSize=8;" vertex="1" parent="1">
          <mxGeometry x="320" y="380" width="60" height="10" as="geometry" />
        </mxCell>
        <mxCell id="AFFpdQYeHImqbVrOeC9r-60" value="&lt;span style=&quot;font-size: 8px;&quot;&gt;david&lt;/span&gt;" style="rounded=0;whiteSpace=wrap;html=1;fillColor=#d5e8d4;strokeColor=#82b366;strokeWidth=1;fontSize=8;" vertex="1" parent="1">
          <mxGeometry x="320" y="390" width="60" height="10" as="geometry" />
        </mxCell>
        <mxCell id="AFFpdQYeHImqbVrOeC9r-61" value="gavri" style="rounded=0;whiteSpace=wrap;html=1;fillColor=#d5e8d4;strokeColor=#82b366;strokeWidth=1;fontSize=8;" vertex="1" parent="1">
          <mxGeometry x="320" y="400" width="60" height="10" as="geometry" />
        </mxCell>
        <mxCell id="AFFpdQYeHImqbVrOeC9r-62" value="&lt;span style=&quot;font-size: 8px;&quot;&gt;yaron&lt;/span&gt;" style="rounded=0;whiteSpace=wrap;html=1;fillColor=#f8cecc;strokeColor=#b85450;strokeWidth=1;fontSize=8;" vertex="1" parent="1">
          <mxGeometry x="320" y="410" width="60" height="10" as="geometry" />
        </mxCell>
        <mxCell id="AFFpdQYeHImqbVrOeC9r-63" value="&lt;span style=&quot;font-size: 8px;&quot;&gt;moshe&lt;/span&gt;" style="rounded=0;whiteSpace=wrap;html=1;fillColor=#d5e8d4;strokeColor=#82b366;strokeWidth=1;fontSize=8;" vertex="1" parent="1">
          <mxGeometry x="320" y="420" width="60" height="10" as="geometry" />
        </mxCell>
        <mxCell id="AFFpdQYeHImqbVrOeC9r-64" value="&lt;span style=&quot;font-size: 8px;&quot;&gt;david&lt;/span&gt;" style="rounded=0;whiteSpace=wrap;html=1;fillColor=#d5e8d4;strokeColor=#82b366;strokeWidth=1;fontSize=8;" vertex="1" parent="1">
          <mxGeometry x="320" y="430" width="60" height="10" as="geometry" />
        </mxCell>
        <mxCell id="AFFpdQYeHImqbVrOeC9r-65" value="gavri" style="rounded=0;whiteSpace=wrap;html=1;fillColor=#d5e8d4;strokeColor=#82b366;strokeWidth=1;fontSize=8;" vertex="1" parent="1">
          <mxGeometry x="320" y="440" width="60" height="10" as="geometry" />
        </mxCell>
        <mxCell id="AFFpdQYeHImqbVrOeC9r-66" value="&lt;span style=&quot;font-size: 8px;&quot;&gt;yaron&lt;/span&gt;" style="rounded=0;whiteSpace=wrap;html=1;fillColor=#f8cecc;strokeColor=#b85450;strokeWidth=1;fontSize=8;" vertex="1" parent="1">
          <mxGeometry x="320" y="450" width="60" height="10" as="geometry" />
        </mxCell>
        <mxCell id="AFFpdQYeHImqbVrOeC9r-67" value="&lt;span style=&quot;font-size: 8px;&quot;&gt;moshe&lt;/span&gt;" style="rounded=0;whiteSpace=wrap;html=1;fillColor=#f8cecc;strokeColor=#b85450;strokeWidth=1;fontSize=8;" vertex="1" parent="1">
          <mxGeometry x="320" y="460" width="60" height="10" as="geometry" />
        </mxCell>
        <mxCell id="AFFpdQYeHImqbVrOeC9r-68" value="&lt;span style=&quot;font-size: 8px;&quot;&gt;david&lt;/span&gt;" style="rounded=0;whiteSpace=wrap;html=1;fillColor=#f8cecc;strokeColor=#b85450;strokeWidth=1;fontSize=8;" vertex="1" parent="1">
          <mxGeometry x="320" y="470" width="60" height="10" as="geometry" />
        </mxCell>
        <mxCell id="AFFpdQYeHImqbVrOeC9r-69" value="gavri" style="rounded=0;whiteSpace=wrap;html=1;fillColor=#d5e8d4;strokeColor=#82b366;strokeWidth=1;fontSize=8;" vertex="1" parent="1">
          <mxGeometry x="320" y="480" width="60" height="10" as="geometry" />
        </mxCell>
        <mxCell id="AFFpdQYeHImqbVrOeC9r-78" value="hey watsup??" style="rounded=1;whiteSpace=wrap;html=1;fontSize=8;strokeWidth=1;" vertex="1" parent="1">
          <mxGeometry x="98.75" y="275" width="162.5" height="25" as="geometry" />
        </mxCell>
        <mxCell id="AFFpdQYeHImqbVrOeC9r-79" value="good!" style="rounded=1;whiteSpace=wrap;html=1;fontSize=8;strokeWidth=1;" vertex="1" parent="1">
          <mxGeometry x="137.5" y="305" width="162.5" height="25" as="geometry" />
        </mxCell>
        <mxCell id="AFFpdQYeHImqbVrOeC9r-80" value="you?" style="rounded=1;whiteSpace=wrap;html=1;fontSize=8;strokeWidth=1;" vertex="1" parent="1">
          <mxGeometry x="137.5" y="337.5" width="162.5" height="25" as="geometry" />
        </mxCell>
        <mxCell id="AFFpdQYeHImqbVrOeC9r-81" value="hey watsup??" style="rounded=1;whiteSpace=wrap;html=1;fontSize=8;strokeWidth=1;" vertex="1" parent="1">
          <mxGeometry x="98.75" y="370" width="162.5" height="25" as="geometry" />
        </mxCell>
        <mxCell id="AFFpdQYeHImqbVrOeC9r-82" value="good!" style="rounded=1;whiteSpace=wrap;html=1;fontSize=8;strokeWidth=1;" vertex="1" parent="1">
          <mxGeometry x="137.5" y="400" width="162.5" height="25" as="geometry" />
        </mxCell>
        <mxCell id="AFFpdQYeHImqbVrOeC9r-83" value="good!" style="rounded=1;whiteSpace=wrap;html=1;fontSize=8;strokeWidth=1;" vertex="1" parent="1">
          <mxGeometry x="137.5" y="430" width="162.5" height="25" as="geometry" />
        </mxCell>
      </root>
    </mxGraphModel>
  </diagram>
</mxfile>
